<svg width="47" height="66" viewBox="0 0 47 66" fill="none" xmlns="http://www.w3.org/2000/svg">
<path d="M13.7137 0.479248H33.28C40.7338 0.479248 46.79 8.95681 46.79 19.3907V46.7798C46.79 51.7954 45.3667 56.6056 42.833 60.1522C40.2994 63.6988 36.8631 65.6913 33.28 65.6913H13.7137C6.25985 65.6913 0.203613 57.2137 0.203613 46.7798V19.3907C0.203613 14.3751 1.62699 9.56489 4.16062 6.0183C6.69425 2.4717 10.1306 0.479248 13.7137 0.479248ZM13.2478 7.00045C11.0238 7.00045 8.89093 8.23715 7.31833 10.4385C5.74573 12.6398 4.86226 15.6255 4.86226 18.7386V47.4319C4.86226 53.9205 8.61246 59.1701 13.2478 59.1701H33.7458C35.9698 59.1701 38.1027 57.9334 39.6753 55.7321C41.2479 53.5307 42.1314 50.5451 42.1314 47.4319V18.7386C42.1314 12.25 38.3812 7.00045 33.7458 7.00045H13.2478ZM35.7258 11.8914C36.498 11.8914 37.2386 12.3208 37.7846 13.0851C38.3307 13.8495 38.6374 14.8861 38.6374 15.9671C38.6374 17.0481 38.3307 18.0847 37.7846 18.8491C37.2386 19.6135 36.498 20.0429 35.7258 20.0429C34.9535 20.0429 34.213 19.6135 33.6669 18.8491C33.1209 18.0847 32.8141 17.0481 32.8141 15.9671C32.8141 14.8861 33.1209 13.8495 33.6669 13.0851C34.213 12.3208 34.9535 11.8914 35.7258 11.8914ZM23.4968 16.7823C26.5857 16.7823 29.5481 18.4999 31.7322 21.5573C33.9164 24.6147 35.1434 28.7614 35.1434 33.0853C35.1434 37.4091 33.9164 41.5558 31.7322 44.6132C29.5481 47.6706 26.5857 49.3883 23.4968 49.3883C20.408 49.3883 17.4456 47.6706 15.2614 44.6132C13.0773 41.5558 11.8502 37.4091 11.8502 33.0853C11.8502 28.7614 13.0773 24.6147 15.2614 21.5573C17.4456 18.4999 20.408 16.7823 23.4968 16.7823ZM23.4968 23.3035C21.6435 23.3035 19.8661 24.334 18.5556 26.1685C17.2451 28.0029 16.5089 30.491 16.5089 33.0853C16.5089 35.6796 17.2451 38.1676 18.5556 40.002C19.8661 41.8365 21.6435 42.8671 23.4968 42.8671C25.3502 42.8671 27.1276 41.8365 28.4381 40.002C29.7486 38.1676 30.4848 35.6796 30.4848 33.0853C30.4848 30.491 29.7486 28.0029 28.4381 26.1685C27.1276 24.334 25.3502 23.3035 23.4968 23.3035Z" fill="black"/>
</svg>
