<svg width="40" height="41" viewBox="0 0 40 41" fill="none" xmlns="http://www.w3.org/2000/svg">
<path d="M11.7362 0.394226H28.4015C34.7502 0.394226 39.9084 5.55252 39.9084 11.9012V28.5665C39.9084 31.6183 38.6961 34.5451 36.5381 36.7031C34.3802 38.8611 31.4533 40.0734 28.4015 40.0734H11.7362C5.38754 40.0734 0.229248 34.9151 0.229248 28.5665V11.9012C0.229248 8.84936 1.44159 5.92251 3.59956 3.76454C5.75754 1.60656 8.68438 0.394226 11.7362 0.394226ZM11.3394 4.36215C9.44518 4.36215 7.62852 5.11463 6.28909 6.45406C4.94965 7.7935 4.19717 9.61016 4.19717 11.5044V28.9632C4.19717 32.9113 7.39134 36.1055 11.3394 36.1055H28.7983C30.6925 36.1055 32.5092 35.353 33.8486 34.0136C35.188 32.6742 35.9405 30.8575 35.9405 28.9632V11.5044C35.9405 7.55632 32.7464 4.36215 28.7983 4.36215H11.3394ZM30.4846 7.33809C31.1424 7.33809 31.7731 7.59937 32.2382 8.06445C32.7033 8.52953 32.9646 9.16031 32.9646 9.81804C32.9646 10.4758 32.7033 11.1065 32.2382 11.5716C31.7731 12.0367 31.1424 12.298 30.4846 12.298C29.8269 12.298 29.1961 12.0367 28.731 11.5716C28.266 11.1065 28.0047 10.4758 28.0047 9.81804C28.0047 9.16031 28.266 8.52953 28.731 8.06445C29.1961 7.59937 29.8269 7.33809 30.4846 7.33809ZM20.0688 10.314C22.6997 10.314 25.2229 11.3591 27.0832 13.2195C28.9435 15.0798 29.9886 17.6029 29.9886 20.2338C29.9886 22.8647 28.9435 25.3879 27.0832 27.2482C25.2229 29.1085 22.6997 30.1536 20.0688 30.1536C17.438 30.1536 14.9148 29.1085 13.0545 27.2482C11.1942 25.3879 10.149 22.8647 10.149 20.2338C10.149 17.6029 11.1942 15.0798 13.0545 13.2195C14.9148 11.3591 17.438 10.314 20.0688 10.314ZM20.0688 14.2819C18.4903 14.2819 16.9764 14.909 15.8602 16.0252C14.744 17.1414 14.117 18.6553 14.117 20.2338C14.117 21.8124 14.744 23.3262 15.8602 24.4424C16.9764 25.5586 18.4903 26.1857 20.0688 26.1857C21.6474 26.1857 23.1613 25.5586 24.2775 24.4424C25.3937 23.3262 26.0207 21.8124 26.0207 20.2338C26.0207 18.6553 25.3937 17.1414 24.2775 16.0252C23.1613 14.909 21.6474 14.2819 20.0688 14.2819Z" fill="black"/>
</svg>
