<svg width="51" height="66" viewBox="0 0 51 66" fill="none" xmlns="http://www.w3.org/2000/svg">
<path d="M14.8019 0.479248H35.9442C43.9984 0.479248 50.5425 8.95681 50.5425 19.3907V46.7798C50.5425 51.7954 49.0045 56.6056 46.2667 60.1522C43.529 63.6988 39.8159 65.6913 35.9442 65.6913H14.8019C6.74767 65.6913 0.203613 57.2137 0.203613 46.7798V19.3907C0.203613 14.3751 1.74164 9.56489 4.47935 6.0183C7.21706 2.4717 10.9302 0.479248 14.8019 0.479248ZM14.2985 7.00045C11.8954 7.00045 9.59067 8.23715 7.8914 10.4385C6.19214 12.6398 5.2375 15.6255 5.2375 18.7386V47.4319C5.2375 53.9205 9.28978 59.1701 14.2985 59.1701H36.4476C38.8507 59.1701 41.1554 57.9334 42.8547 55.7321C44.554 53.5307 45.5086 50.5451 45.5086 47.4319V18.7386C45.5086 12.25 41.4563 7.00045 36.4476 7.00045H14.2985ZM38.587 11.8914C39.4214 11.8914 40.2217 12.3208 40.8117 13.0851C41.4017 13.8495 41.7332 14.8861 41.7332 15.9671C41.7332 17.0481 41.4017 18.0847 40.8117 18.8491C40.2217 19.6135 39.4214 20.0429 38.587 20.0429C37.7526 20.0429 36.9523 19.6135 36.3623 18.8491C35.7723 18.0847 35.4408 17.0481 35.4408 15.9671C35.4408 14.8861 35.7723 13.8495 36.3623 13.0851C36.9523 12.3208 37.7526 11.8914 38.587 11.8914ZM25.373 16.7823C28.7107 16.7823 31.9117 18.4999 34.2718 21.5573C36.6319 24.6147 37.9578 28.7614 37.9578 33.0853C37.9578 37.4091 36.6319 41.5558 34.2718 44.6132C31.9117 47.6706 28.7107 49.3883 25.373 49.3883C22.0354 49.3883 18.8344 47.6706 16.4743 44.6132C14.1142 41.5558 12.7883 37.4091 12.7883 33.0853C12.7883 28.7614 14.1142 24.6147 16.4743 21.5573C18.8344 18.4999 22.0354 16.7823 25.373 16.7823ZM25.373 23.3035C23.3704 23.3035 21.4499 24.334 20.0338 26.1685C18.6177 28.0029 17.8222 30.491 17.8222 33.0853C17.8222 35.6796 18.6177 38.1676 20.0338 40.002C21.4499 41.8365 23.3704 42.8671 25.373 42.8671C27.3757 42.8671 29.2962 41.8365 30.7123 40.002C32.1283 38.1676 32.9239 35.6796 32.9239 33.0853C32.9239 30.491 32.1283 28.0029 30.7123 26.1685C29.2962 24.334 27.3757 23.3035 25.373 23.3035Z" fill="black"/>
</svg>
